<svg xmlns="http://www.w3.org/2000/svg" viewBox="0 0 1600 1160" width="1600" height="1160" xmlns:c2pa="http://c2pa.org/manifest"><metadata><c2pa:manifest>AAAWgmp1bWIAAAAeanVtZGMycGEAEQAQgAAAqgA4m3EDYzJwYQAAABZcanVtYgAAAEdqdW1kYzJtYQARABCAAACqADibcQN1cm46YzJwYTpjNTgxNDAwYi0wNTgyLTRmYTUtYmVlOC05Yjc2MzZkYTYwNjcAAAADl2p1bWIAAAApanVtZGMyYXMAEQAQgAAAqgA4m3EDYzJwYS5hc3NlcnRpb25zAAAAALxqdW1iAAAARGp1bWRjYm9yABEAEIAAAKoAOJtxE2MycGEuaW5ncmVkaWVudC52MwAAAAAYYzJzaCHyYUD/zSCBp4qFcrT9ZwoAAABwY2JvcqNpZGM6Zm9ybWF0bWltYWdlL3N2Zyt4bWxqaW5zdGFuY2VJRHgseG1wOmlpZDpiOTg0NGU0MC0xNzhlLTRiNzYtODgyZS01MDJiYTEyY2FjYjdscmVsYXRpb25zaGlwaHBhcmVudE9mAAAB4mp1bWIAAABBanVtZGNib3IAEQAQgAAAqgA4m3ETYzJwYS5hY3Rpb25zLnYyAAAAABhjMnNoj6qXoqdNFCR0YLyAxjXX2AAAAZljYm9yomdhY3Rpb25zgqJmYWN0aW9ua2MycGEub3BlbmVkanBhcmFtZXRlcnOha2luZ3JlZGllbnRzgaJjdXJseC1zZWxmI2p1bWJmPWMycGEuYXNzZXJ0aW9ucy9jMnBhLmluZ3JlZGllbnQudjNkaGFzaFggDeNUJACd0l89uHOhtvAzdE/NiOyCx6nQu8wBgTA3RDikZmFjdGlvbngdY29tLmFudGhyb3BpYy5jbGF1ZGUucHJvdmlkZWRqcGFyYW1ldGVyc6F4H2NvbS5hbnRocm9waWMub3JpZ2luLWNvbmZpZGVuY2VndW5rbm93bmtkZXNjcmlwdGlvbnhmQ2xhdWRlIHByb3ZpZGVkIHRoaXMgZmlsZSBhdCB0aGUgcmVxdWVzdCBvZiBhIHVzZXIgYW5kIG1heSBoYXZlIGNyZWF0ZWQgb3IgbW9kaWZpZWQgdGhlIGZpbGUgY29udGVudHMubXNvZnR3YXJlQWdlbnShZG5hbWVmQ2xhdWRlcmFsbEFjdGlvbnNJbmNsdWRlZPUAAADIanVtYgAAAEBqdW1kY2JvcgARABCAAACqADibcRNjMnBhLmhhc2guZGF0YQAAAAAYYzJzaNmtNgZlqNRyXm0BfA1HnlAAAACAY2JvcqVjYWxnZnNoYTI1NmNwYWRNAAAAAAAAAAAAAAAAAGRoYXNoWCC+eSDTAugT9crsxR7+KvXi9n+QxRitpcSm7Ymny6EawWRuYW1lbmp1bWJmIG1hbmlmZXN0amV4Y2x1c2lvbnOBomVzdGFydBiaZmxlbmd0aBkeBAAAAj5qdW1iAAAAJ2p1bWRjMmNsABEAEIAAAKoAOJtxA2MycGEuY2xhaW0udjIAAAACD2Nib3KlY2FsZ2ZzaGEyNTZpc2lnbmF0dXJleE1zZWxmI2p1bWJmPS9jMnBhL3VybjpjMnBhOmM1ODE0MDBiLTA1ODItNGZhNS1iZWU4LTliNzYzNmRhNjA2Ny9jMnBhLnNpZ25hdHVyZWppbnN0YW5jZUlEeCx4bXA6aWlkOmRiYmJmZWUzLWY5Y2YtNDA5Ni1hMTU2LTAzNWViNGUwZmUyZXJjcmVhdGVkX2Fzc2VydGlvbnODomN1cmx4LXNlbGYjanVtYmY9YzJwYS5hc3NlcnRpb25zL2MycGEuaW5ncmVkaWVudC52M2RoYXNoWCAN41QkAJ3SXz24c6G28DN0T82I7ILHqdC7zAGBMDdEOKJjdXJseCpzZWxmI2p1bWJmPWMycGEuYXNzZXJ0aW9ucy9jMnBhLmFjdGlvbnMudjJkaGFzaFggc7ruPOwf62YMhWMt6Dj7kKoyhJMkK8Araqh3tgP0m5WiY3VybHgpc2VsZiNqdW1iZj1jMnBhLmFzc2VydGlvbnMvYzJwYS5oYXNoLmRhdGFkaGFzaFggnitZWoPLuhP6rWUTXUuql+RHyYUoPPXV75YN8TF0tiR0Y2xhaW1fZ2VuZXJhdG9yX2luZm+jZG5hbWVvQW50aHJvcGljIEZpbGVzZ3ZlcnNpb25lMS4wLjBrc3BlY1ZlcnNpb25lMi40LjAAABA4anVtYgAAAChqdW1kYzJjcwARABCAAACqADibcQNjMnBhLnNpZ25hdHVyZQAAABAIY2JvctKEWQISogEmGCFZAgowggIGMIIBjaADAgECAhRA5aAK7sI50L64g/oGQgU9Z1UTADAKBggqhkjOPQQDAzBJMRcwFQYDVQQKEw5BbnRocm9waWMsIFBCQzEuMCwGA1UEAxMlQW50aHJvcGljIENvbnRlbnQgQ3JlZGVudGlhbHMgUm9vdCBDQTAeFw0yNjA4MDcxODQzNTZaFw0yODA4MDYxOTQzNTZaMEQxFzAVBgNVBAoTDkFudGhyb3BpYywgUEJDMSkwJwYDVQQDEyBBbnRocm9waWMgQ2xhdWRlIENvbnRlbnQgU2lnbmluZzBZMBMGByqGSM49AgEGCCqGSM49AwEHA0IABJh6CmvLUBgFFNU0vUKlOVtE6djd17L5SuwX0LemFisBM3dkd/3cyjxFA3Qo5S46fX0/ihY0VZ7mfb9KF703t5OjWDBWMA4GA1UdDwEB/wQEAwIHgDAVBgNVHSUEDjAMBgorBgEEAYPoXgIBMAwGA1UdEwEB/wQCMAAwHwYDVR0jBBgwFoAUzlHiBIFOZFsj+OPEz5o+nMHXXMIwCgYIKoZIzj0EAwMDZwAwZAIwMXMdFJ4BetLLVY7ORuE9noqbbAZOZn/aArXyTwFAZfKrPzxF2vPoJNf1+UCdg1XGAjBwX1zd9WGqYkqmL5SFqw1QySjr1zJfpJM9+1rdDwSPLMOPOjKuiXjoU/pUUeG9RwmhY3BhZFkNngAAAAAAAAAAAAAAAAAAAAAAAAAAAAAAAAAAAAAAAAAAAAAAAAAAAAAAAAAAAAAAAAAAAAAAAAAAAAAAAAAAAAAAAAAAAAAAAAAAAAAAAAAAAAAAAAAAAAAAAAAAAAAAAAAAAAAAAAAAAAAAAAAAAAAAAAAAAAAAAAAAAAAAAAAAAAAAAAAAAAAAAAAAAAAAAAAAAAAAAAAAAAAAAAAAAAAAAAAAAAAAAAAAAAAAAAAAAAAAAAAAAAAAAAAAAAAAAAAAAAAAAAAAAAAAAAAAAAAAAAAAAAAAAAAAAAAAAAAAAAAAAAAAAAAAAAAAAAAAAAAAAAAAAAAAAAAAAAAAAAAAAAAAAAAAAAAAAAAAAAAAAAAAAAAAAAAAAAAAAAAAAAAAAAAAAAAAAAAAAAAAAAAAAAAAAAAAAAAAAAAAAAAAAAAAAAAAAAAAAAAAAAAAAAAAAAAAAAAAAAAAAAAAAAAAAAAAAAAAAAAAAAAAAAAAAAAAAAAAAAAAAAAAAAAAAAAAAAAAAAAAAAAAAAAAAAAAAAAAAAAAAAAAAAAAAAAAAAAAAAAAAAAAAAAAAAAAAAAAAAAAAAAAAAAAAAAAAAAAAAAAAAAAAAAAAAAAAAAAAAAAAAAAAAAAAAAAAAAAAAAAAAAAAAAAAAAAAAAAAAAAAAAAAAAAAAAAAAAAAAAAAAAAAAAAAAAAAAAAAAAAAAAAAAAAAAAAAAAAAAAAAAAAAAAAAAAAAAAAAAAAAAAAAAAAAAAAAAAAAAAAAAAAAAAAAAAAAAAAAAAAAAAAAAAAAAAAAAAAAAAAAAAAAAAAAAAAAAAAAAAAAAAAAAAAAAAAAAAAAAAAAAAAAAAAAAAAAAAAAAAAAAAAAAAAAAAAAAAAAAAAAAAAAAAAAAAAAAAAAAAAAAAAAAAAAAAAAAAAAAAAAAAAAAAAAAAAAAAAAAAAAAAAAAAAAAAAAAAAAAAAAAAAAAAAAAAAAAAAAAAAAAAAAAAAAAAAAAAAAAAAAAAAAAAAAAAAAAAAAAAAAAAAAAAAAAAAAAAAAAAAAAAAAAAAAAAAAAAAAAAAAAAAAAAAAAAAAAAAAAAAAAAAAAAAAAAAAAAAAAAAAAAAAAAAAAAAAAAAAAAAAAAAAAAAAAAAAAAAAAAAAAAAAAAAAAAAAAAAAAAAAAAAAAAAAAAAAAAAAAAAAAAAAAAAAAAAAAAAAAAAAAAAAAAAAAAAAAAAAAAAAAAAAAAAAAAAAAAAAAAAAAAAAAAAAAAAAAAAAAAAAAAAAAAAAAAAAAAAAAAAAAAAAAAAAAAAAAAAAAAAAAAAAAAAAAAAAAAAAAAAAAAAAAAAAAAAAAAAAAAAAAAAAAAAAAAAAAAAAAAAAAAAAAAAAAAAAAAAAAAAAAAAAAAAAAAAAAAAAAAAAAAAAAAAAAAAAAAAAAAAAAAAAAAAAAAAAAAAAAAAAAAAAAAAAAAAAAAAAAAAAAAAAAAAAAAAAAAAAAAAAAAAAAAAAAAAAAAAAAAAAAAAAAAAAAAAAAAAAAAAAAAAAAAAAAAAAAAAAAAAAAAAAAAAAAAAAAAAAAAAAAAAAAAAAAAAAAAAAAAAAAAAAAAAAAAAAAAAAAAAAAAAAAAAAAAAAAAAAAAAAAAAAAAAAAAAAAAAAAAAAAAAAAAAAAAAAAAAAAAAAAAAAAAAAAAAAAAAAAAAAAAAAAAAAAAAAAAAAAAAAAAAAAAAAAAAAAAAAAAAAAAAAAAAAAAAAAAAAAAAAAAAAAAAAAAAAAAAAAAAAAAAAAAAAAAAAAAAAAAAAAAAAAAAAAAAAAAAAAAAAAAAAAAAAAAAAAAAAAAAAAAAAAAAAAAAAAAAAAAAAAAAAAAAAAAAAAAAAAAAAAAAAAAAAAAAAAAAAAAAAAAAAAAAAAAAAAAAAAAAAAAAAAAAAAAAAAAAAAAAAAAAAAAAAAAAAAAAAAAAAAAAAAAAAAAAAAAAAAAAAAAAAAAAAAAAAAAAAAAAAAAAAAAAAAAAAAAAAAAAAAAAAAAAAAAAAAAAAAAAAAAAAAAAAAAAAAAAAAAAAAAAAAAAAAAAAAAAAAAAAAAAAAAAAAAAAAAAAAAAAAAAAAAAAAAAAAAAAAAAAAAAAAAAAAAAAAAAAAAAAAAAAAAAAAAAAAAAAAAAAAAAAAAAAAAAAAAAAAAAAAAAAAAAAAAAAAAAAAAAAAAAAAAAAAAAAAAAAAAAAAAAAAAAAAAAAAAAAAAAAAAAAAAAAAAAAAAAAAAAAAAAAAAAAAAAAAAAAAAAAAAAAAAAAAAAAAAAAAAAAAAAAAAAAAAAAAAAAAAAAAAAAAAAAAAAAAAAAAAAAAAAAAAAAAAAAAAAAAAAAAAAAAAAAAAAAAAAAAAAAAAAAAAAAAAAAAAAAAAAAAAAAAAAAAAAAAAAAAAAAAAAAAAAAAAAAAAAAAAAAAAAAAAAAAAAAAAAAAAAAAAAAAAAAAAAAAAAAAAAAAAAAAAAAAAAAAAAAAAAAAAAAAAAAAAAAAAAAAAAAAAAAAAAAAAAAAAAAAAAAAAAAAAAAAAAAAAAAAAAAAAAAAAAAAAAAAAAAAAAAAAAAAAAAAAAAAAAAAAAAAAAAAAAAAAAAAAAAAAAAAAAAAAAAAAAAAAAAAAAAAAAAAAAAAAAAAAAAAAAAAAAAAAAAAAAAAAAAAAAAAAAAAAAAAAAAAAAAAAAAAAAAAAAAAAAAAAAAAAAAAAAAAAAAAAAAAAAAAAAAAAAAAAAAAAAAAAAAAAAAAAAAAAAAAAAAAAAAAAAAAAAAAAAAAAAAAAAAAAAAAAAAAAAAAAAAAAAAAAAAAAAAAAAAAAAAAAAAAAAAAAAAAAAAAAAAAAAAAAAAAAAAAAAAAAAAAAAAAAAAAAAAAAAAAAAAAAAAAAAAAAAAAAAAAAAAAAAAAAAAAAAAAAAAAAAAAAAAAAAAAAAAAAAAAAAAAAAAAAAAAAAAAAAAAAAAAAAAAAAAAAAAAAAAAAAAAAAAAAAAAAAAAAAAAAAAAAAAAAAAAAAAAAAAAAAAAAAAAAAAAAAAAAAAAAAAAAAAAAAAAAAAAAAAAAAAAAAAAAAAAAAAAAAAAAAAAAAAAAAAAAAAAAAAAAAAAAAAAAAAAAAAAAAAAAAAAAAAAAAAAAAAAAAAAAAAAAAAAAAAAAAAAAAAAAAAAAAAAAAAAAAAAAAAAAAAAAAAAAAAAAAAAAAAAAAAAAAAAAAAAAAAAAAAAAAAAAAAAAAAAAAAAAAAAAAAAAAAAAAAAAAAAAAAAAAAAAAAAAAAAAAAAAAAAAAAAAAAAAAAAAAAAAAAAAAAAAAAAAAAAAAAAAAAAAAAAAAAAAAAAAAAAAAAAAAAAAAAAAAAAAAAAAAAAAAAAAAAAAAAAAAAAAAAAAAAAAAAAAAAAAAAAAAAAAAAAAAAAAAAAAAAAAAAAAAAAAAAAAAAAAAAAAAAAAAAAAAAAAAAAAAAAAAAAAAAAAAAAAAAAAAAAAAAAAAAAAAAAAAAAAAAAAAAAAAAAAAAAAAAAAAAAAAAAAAAAAAAAAAAAAAAAAAAAAAAAAAAAAAAAAAAAAAAAAAAAAAAAAAAAAAAAAAAAAAAAAAAAAAAAAAAAAAAAAAAAAAAAAAAAAAAAAAAAAAAAAAAAAAAAAAAAAAAAAAAAAAAAAAAAAAAAAAAAAAAAAAAAAAAAAAAAAAAAAAAAAAAAAAAAAAAAAAAAAAAAAAAAAAAAAAAAAAAAAAAAAAAAAAAAAAAAAAAAAAAAAAAAAAAAAAAAAAAAAAAAAAAAAAAAAAAAAAAAAAAAAAAAAAAAAAAAAAAAAAAAAAAAAAAAAAAAAAAAAAAAAAAAAAAAAAAAAAAAAAAAAAAAAAAAAAAAAAAAAAAAAAAAAAAAAAAAAAAAAAAAAAAAAAAAAAAAAAAAAAAAAAAAAAAAAAAAAAAAAAAAAAAAAAAAAAAAAAAAAAAAAAAAAAAAAAAAAAAAAAAAAAAAAAAAAAAAAAAAAAAAAAAAAAAAAAAAAAAAAAAAAAAAAAAAAAAAAAAAAAAAAAAAAAAAAAAAAAAAAAAAAAAAAAAAAAAAAAAAAAAAAAAAAAAAAAAAAAAAAAAAAAAAAAAAAAAAAAAAAAAAAAAAAAAAAAAAAAAAAAAAAAAAAAAAAAAAAAAAAAAAAAAAAAAAAAAAAAAAAAAAAAAAAAAAAAAAAAAAAAAAAAAAAAAAAAAAAAAAAAAAAAAAAAAAAAAAAAAAAAAAAAAAAAAAAAAAAAAAAAAAAAAAAAAAAAAAAAAAAAAAAAAAAAAAAAAAAAAAAAAAAAAAAAAAAAAAAAAAAAAAAAAAAAAAAAAAAAAAAAAAAAAAAAAAAAAAAAAAAAAAAAAAAAAAAAAAAAAAAAAAAAAAAAAAAAAAAAAAAAAAAAAAAAAAAAAAAAAAAAAAAAAAAAAAAAAAAAAAAAAAAAAAAAAAAAAAAAAAAAAAAAAAAAAAAAAAAAAAAAAAAAAAAAAAAAAAAAAAAAAAAAAAAAAAAAAAAAAAAAAAAAAAAAAAAAAAAAAAAAAAAAAAAAAAAAAAAAAAAAAAAAAAAAAAAAAAAAAAAAAAAAAAAAAAAAAAAAAAAAAAAAAAAAAAAAAAAAAAAAAAAAAAAAAAAAAAAAAAAAAAAAAAAAAAAAAAAAAAAAAAAAAAAAAAAAAPZYQOFbDpS+/hLIvselwHqKEAdaab+x4Y4cZWzVPtEaKNI9voLjY3o2KvEOW4SBkSs/Nsvmoh49niiD+R0fAokzeCU=</c2pa:manifest></metadata><defs><radialGradient id="sky" cx="48%" cy="36%" r="86%"><stop offset="0%" stop-color="#1E3568"/><stop offset="55%" stop-color="#15254F"/><stop offset="100%" stop-color="#0B1430"/></radialGradient></defs><rect width="1600" height="1160" fill="url(#sky)"/><path d="M774,306 Q882,339 980,281" stroke="#27458A" stroke-width="7.7" fill="none" stroke-linecap="round" opacity="0.08"/>
<path d="M-74,-9 Q26,46 134,9" stroke="#A9C4EE" stroke-width="4.3" fill="none" stroke-linecap="round" opacity="0.08"/>
<path d="M1366,494 Q1476,522 1570,460" stroke="#7EA3DC" stroke-width="4.9" fill="none" stroke-linecap="round" opacity="0.10"/>
<path d="M997,607 Q1078,645 1160,611" stroke="#A9C4EE" stroke-width="5.2" fill="none" stroke-linecap="round" opacity="0.09"/>
<path d="M252,353 Q351,398 452,355" stroke="#A9C4EE" stroke-width="7.0" fill="none" stroke-linecap="round" opacity="0.09"/>
<path d="M945,328 Q1026,380 1119,355" stroke="#7EA3DC" stroke-width="6.9" fill="none" stroke-linecap="round" opacity="0.11"/>
<path d="M1280,201 Q1365,257 1464,233" stroke="#27458A" stroke-width="5.6" fill="none" stroke-linecap="round" opacity="0.08"/>
<path d="M939,396 Q1044,455 1159,416" stroke="#A9C4EE" stroke-width="7.0" fill="none" stroke-linecap="round" opacity="0.11"/>
<path d="M1462,554 Q1553,606 1653,573" stroke="#27458A" stroke-width="5.1" fill="none" stroke-linecap="round" opacity="0.12"/>
<path d="M-71,856 Q45,880 141,812" stroke="#7EA3DC" stroke-width="5.2" fill="none" stroke-linecap="round" opacity="0.05"/>
<path d="M1347,11 Q1393,36 1443,19" stroke="#7EA3DC" stroke-width="4.0" fill="none" stroke-linecap="round" opacity="0.09"/>
<path d="M1334,879 Q1421,891 1490,835" stroke="#7EA3DC" stroke-width="6.9" fill="none" stroke-linecap="round" opacity="0.08"/>
<path d="M44,670 Q113,680 166,636" stroke="#7EA3DC" stroke-width="4.5" fill="none" stroke-linecap="round" opacity="0.06"/>
<path d="M-50,720 Q62,748 158,685" stroke="#27458A" stroke-width="7.5" fill="none" stroke-linecap="round" opacity="0.09"/>
<path d="M1411,210 Q1522,226 1608,154" stroke="#7EA3DC" stroke-width="7.2" fill="none" stroke-linecap="round" opacity="0.09"/>
<path d="M407,635 Q515,653 601,586" stroke="#A9C4EE" stroke-width="5.6" fill="none" stroke-linecap="round" opacity="0.09"/>
<path d="M210,364 Q267,374 313,338" stroke="#A9C4EE" stroke-width="6.0" fill="none" stroke-linecap="round" opacity="0.11"/>
<path d="M998,339 Q1055,358 1108,329" stroke="#A9C4EE" stroke-width="5.6" fill="none" stroke-linecap="round" opacity="0.09"/>
<path d="M62,175 Q146,189 214,136" stroke="#7EA3DC" stroke-width="6.4" fill="none" stroke-linecap="round" opacity="0.11"/>
<path d="M632,789 Q716,817 794,774" stroke="#7EA3DC" stroke-width="4.1" fill="none" stroke-linecap="round" opacity="0.09"/>
<path d="M-28,485 Q86,533 198,481" stroke="#A9C4EE" stroke-width="4.2" fill="none" stroke-linecap="round" opacity="0.12"/>
<path d="M315,163 Q367,200 429,186" stroke="#7EA3DC" stroke-width="6.9" fill="none" stroke-linecap="round" opacity="0.06"/>
<path d="M355,838 Q402,855 446,831" stroke="#7EA3DC" stroke-width="5.7" fill="none" stroke-linecap="round" opacity="0.12"/>
<path d="M333,478 Q401,506 467,475" stroke="#7EA3DC" stroke-width="6.6" fill="none" stroke-linecap="round" opacity="0.10"/>
<path d="M1168,893 Q1221,908 1267,880" stroke="#7EA3DC" stroke-width="7.0" fill="none" stroke-linecap="round" opacity="0.07"/>
<path d="M99,212 Q199,274 312,242" stroke="#A9C4EE" stroke-width="7.1" fill="none" stroke-linecap="round" opacity="0.07"/>
<path d="M20,545 Q101,601 196,579" stroke="#A9C4EE" stroke-width="7.2" fill="none" stroke-linecap="round" opacity="0.10"/>
<path d="M516,566 Q578,612 654,598" stroke="#7EA3DC" stroke-width="6.5" fill="none" stroke-linecap="round" opacity="0.09"/>
<path d="M117,463 Q211,505 305,464" stroke="#A9C4EE" stroke-width="4.9" fill="none" stroke-linecap="round" opacity="0.12"/>
<path d="M1170,640 Q1234,656 1288,620" stroke="#A9C4EE" stroke-width="5.5" fill="none" stroke-linecap="round" opacity="0.09"/>
<path d="M1216,161 Q1328,207 1437,155" stroke="#A9C4EE" stroke-width="5.3" fill="none" stroke-linecap="round" opacity="0.07"/>
<path d="M1315,156 Q1386,207 1472,190" stroke="#7EA3DC" stroke-width="6.9" fill="none" stroke-linecap="round" opacity="0.07"/>
<path d="M938,403 Q999,441 1069,423" stroke="#27458A" stroke-width="4.4" fill="none" stroke-linecap="round" opacity="0.11"/>
<path d="M1118,-25 Q1225,28 1337,-15" stroke="#27458A" stroke-width="6.6" fill="none" stroke-linecap="round" opacity="0.08"/>
<path d="M875,25 Q922,56 976,43" stroke="#7EA3DC" stroke-width="7.8" fill="none" stroke-linecap="round" opacity="0.12"/>
<path d="M193,312 Q278,366 376,340" stroke="#7EA3DC" stroke-width="6.2" fill="none" stroke-linecap="round" opacity="0.06"/>
<path d="M539,117 Q588,135 635,112" stroke="#A9C4EE" stroke-width="4.0" fill="none" stroke-linecap="round" opacity="0.12"/>
<path d="M991,614 Q1081,673 1186,646" stroke="#27458A" stroke-width="6.4" fill="none" stroke-linecap="round" opacity="0.10"/>
<path d="M253,884 Q319,903 378,868" stroke="#7EA3DC" stroke-width="6.6" fill="none" stroke-linecap="round" opacity="0.06"/>
<path d="M933,79 Q1048,95 1137,22" stroke="#A9C4EE" stroke-width="6.2" fill="none" stroke-linecap="round" opacity="0.09"/>
<path d="M1171,702 Q1244,743 1324,717" stroke="#A9C4EE" stroke-width="7.9" fill="none" stroke-linecap="round" opacity="0.10"/>
<path d="M319,685 Q377,715 438,693" stroke="#7EA3DC" stroke-width="4.0" fill="none" stroke-linecap="round" opacity="0.12"/>
<path d="M517,433 Q576,469 642,450" stroke="#7EA3DC" stroke-width="4.9" fill="none" stroke-linecap="round" opacity="0.08"/>
<path d="M851,908 Q972,932 1071,860" stroke="#A9C4EE" stroke-width="7.2" fill="none" stroke-linecap="round" opacity="0.07"/>
<path d="M253,446 Q321,467 382,432" stroke="#A9C4EE" stroke-width="6.1" fill="none" stroke-linecap="round" opacity="0.10"/>
<path d="M750,633 Q798,662 852,646" stroke="#A9C4EE" stroke-width="4.6" fill="none" stroke-linecap="round" opacity="0.06"/>
<path d="M467,230 Q578,247 666,177" stroke="#27458A" stroke-width="6.4" fill="none" stroke-linecap="round" opacity="0.10"/>
<path d="M353,443 Q409,478 473,461" stroke="#27458A" stroke-width="4.5" fill="none" stroke-linecap="round" opacity="0.11"/>
<path d="M329,607 Q391,651 464,636" stroke="#A9C4EE" stroke-width="7.6" fill="none" stroke-linecap="round" opacity="0.07"/>
<path d="M477,564 Q550,611 633,590" stroke="#7EA3DC" stroke-width="4.6" fill="none" stroke-linecap="round" opacity="0.06"/>
<path d="M-31,221 Q38,254 110,226" stroke="#27458A" stroke-width="7.3" fill="none" stroke-linecap="round" opacity="0.12"/>
<path d="M846,904 Q913,925 973,891" stroke="#A9C4EE" stroke-width="4.3" fill="none" stroke-linecap="round" opacity="0.10"/>
<path d="M747,11 Q847,38 935,-18" stroke="#7EA3DC" stroke-width="5.9" fill="none" stroke-linecap="round" opacity="0.11"/>
<path d="M-28,851 Q47,872 112,830" stroke="#7EA3DC" stroke-width="5.7" fill="none" stroke-linecap="round" opacity="0.08"/>
<path d="M1291,567 Q1367,613 1452,587" stroke="#7EA3DC" stroke-width="7.9" fill="none" stroke-linecap="round" opacity="0.05"/>
<path d="M498,909 Q547,925 592,899" stroke="#A9C4EE" stroke-width="5.9" fill="none" stroke-linecap="round" opacity="0.10"/>
<path d="M367,852 Q443,888 519,856" stroke="#7EA3DC" stroke-width="6.8" fill="none" stroke-linecap="round" opacity="0.11"/>
<path d="M768,245 Q886,280 992,218" stroke="#27458A" stroke-width="7.7" fill="none" stroke-linecap="round" opacity="0.11"/>
<path d="M1139,-0 Q1189,17 1236,-8" stroke="#7EA3DC" stroke-width="7.7" fill="none" stroke-linecap="round" opacity="0.08"/>
<path d="M954,391 Q1011,431 1078,415" stroke="#27458A" stroke-width="7.7" fill="none" stroke-linecap="round" opacity="0.11"/>
<path d="M781,201 Q850,232 920,203" stroke="#27458A" stroke-width="7.5" fill="none" stroke-linecap="round" opacity="0.05"/>
<path d="M-20,817 Q72,855 162,813" stroke="#7EA3DC" stroke-width="6.7" fill="none" stroke-linecap="round" opacity="0.12"/>
<path d="M955,33 Q1073,58 1171,-12" stroke="#A9C4EE" stroke-width="7.9" fill="none" stroke-linecap="round" opacity="0.11"/>
<path d="M-29,301 Q25,323 78,297" stroke="#7EA3DC" stroke-width="6.3" fill="none" stroke-linecap="round" opacity="0.07"/>
<path d="M27,594 Q96,621 161,588" stroke="#7EA3DC" stroke-width="4.5" fill="none" stroke-linecap="round" opacity="0.07"/>
<path d="M1182,261 Q1297,309 1410,256" stroke="#27458A" stroke-width="7.6" fill="none" stroke-linecap="round" opacity="0.09"/>
<path d="M-72,426 Q11,488 112,469" stroke="#27458A" stroke-width="4.7" fill="none" stroke-linecap="round" opacity="0.08"/>
<path d="M1397,731 Q1505,768 1605,714" stroke="#7EA3DC" stroke-width="6.9" fill="none" stroke-linecap="round" opacity="0.11"/>
<path d="M1148,586 Q1215,625 1289,602" stroke="#27458A" stroke-width="4.1" fill="none" stroke-linecap="round" opacity="0.09"/>
<path d="M254,24 Q336,62 420,27" stroke="#7EA3DC" stroke-width="6.3" fill="none" stroke-linecap="round" opacity="0.07"/>
<path d="M-40,1200 L-40,933 L-20,939 L0,943 L20,948 L40,951 L60,953 L80,955 L100,956 L120,956 L140,956 L160,956 L180,955 L200,954 L220,954 L240,953 L260,953 L280,953 L300,954 L320,955 L340,957 L360,960 L380,962 L400,965 L420,968 L440,971 L460,974 L480,977 L500,979 L520,981 L540,981 L560,981 L580,980 L600,978 L620,975 L640,971 L660,966 L680,961 L700,955 L720,948 L740,941 L760,934 L780,928 L800,921 L820,915 L840,910 L860,905 L880,901 L900,898 L920,896 L940,894 L960,893 L980,893 L1000,894 L1020,895 L1040,896 L1060,897 L1080,898 L1100,899 L1120,900 L1140,900 L1160,899 L1180,899 L1200,897 L1220,895 L1240,893 L1260,891 L1280,888 L1300,886 L1320,883 L1340,881 L1360,880 L1380,879 L1400,879 L1420,879 L1440,881 L1460,884 L1480,887 L1500,891 L1520,897 L1540,902 L1560,909 L1580,916 L1600,923 L1620,930 L1640,936 L1640,1200 Z" fill="#0A1426"/>
<polyline points="-40,933 -20,939 0,943 20,948 40,951 60,953 80,955 100,956 120,956 140,956 160,956 180,955 200,954 220,954 240,953 260,953 280,953 300,954 320,955 340,957 360,960 380,962 400,965 420,968 440,971 460,974 480,977 500,979 520,981 540,981 560,981 580,980 600,978 620,975 640,971 660,966 680,961 700,955 720,948 740,941 760,934 780,928 800,921 820,915 840,910 860,905 880,901 900,898 920,896 940,894 960,893 980,893 1000,894 1020,895 1040,896 1060,897 1080,898 1100,899 1120,900 1140,900 1160,899 1180,899 1200,897 1220,895 1240,893 1260,891 1280,888 1300,886 1320,883 1340,881 1360,880 1380,879 1400,879 1420,879 1440,881 1460,884 1480,887 1500,891 1520,897 1540,902 1560,909 1580,916 1600,923 1620,930 1640,936" fill="none" stroke="#27458A" stroke-width="5" opacity="0.30"/>
<rect x="474" y="1072" width="9" height="7" rx="2" fill="#E8C86A" opacity="0.31"/>
<rect x="638" y="1006" width="9" height="7" rx="2" fill="#E8C86A" opacity="0.33"/>
<rect x="1407" y="984" width="9" height="7" rx="2" fill="#E8C86A" opacity="0.33"/>
<rect x="90" y="985" width="9" height="7" rx="2" fill="#E8C86A" opacity="0.27"/>
<rect x="1219" y="956" width="9" height="7" rx="2" fill="#E8C86A" opacity="0.32"/>
<rect x="582" y="1105" width="9" height="7" rx="2" fill="#E8C86A" opacity="0.33"/>
<rect x="622" y="1025" width="9" height="7" rx="2" fill="#E8C86A" opacity="0.34"/>
<rect x="865" y="991" width="9" height="7" rx="2" fill="#E8C86A" opacity="0.24"/>
<rect x="147" y="1034" width="9" height="7" rx="2" fill="#E8C86A" opacity="0.27"/>
<rect x="961" y="955" width="9" height="7" rx="2" fill="#E8C86A" opacity="0.26"/>
<rect x="572" y="1019" width="9" height="7" rx="2" fill="#E8C86A" opacity="0.30"/>
<rect x="318" y="1009" width="9" height="7" rx="2" fill="#E8C86A" opacity="0.23"/>
<rect x="1469" y="989" width="9" height="7" rx="2" fill="#E8C86A" opacity="0.20"/>
<rect x="1469" y="972" width="9" height="7" rx="2" fill="#E8C86A" opacity="0.32"/></svg>